<?xml version="1.0" encoding="UTF-8"?>
<svg xmlns="http://www.w3.org/2000/svg" viewBox="0 0 320 70" width="100%" height="100%">
  <title>NEXT HOME</title>
  <defs>
    <style>
      @import url('https://fonts.googleapis.com/css2?family=Cinzel:wght@700&amp;family=IBM+Plex+Sans+Arabic:wght@700&amp;display=swap');
      .wordmark {
        font-family: 'Cinzel', serif;
        font-size: 24px;
        font-weight: 700;
        letter-spacing: 0.12em;
        fill: #FFFFFF;
      }
      .arabic-submark {
        font-family: 'IBM Plex Sans Arabic', sans-serif;
        font-size: 13px;
        font-weight: 700;
        letter-spacing: 0.05em;
        fill: #FFFFFF;
      }
    </style>
  </defs>
  <!-- Monogram Part -->
  <g transform="translate(10, -8) scale(0.75)">
    
  <!-- Sparkle above the monogram -->
  <path d="M 56.5,12 C 56.5,16.5 54.5,18.5 50,19 C 54.5,19.5 56.5,21.5 56.5,26 C 56.5,21.5 58.5,19.5 63,19 C 58.5,18.5 56.5,16.5 56.5,12 Z" fill="#FFFFFF" />
  
  <!-- Intertwined NH Monogram Group -->
  <g fill="#FFFFFF">
    <!-- N Left Stem: starts with elegant flared bottom-left serif, goes up and curves over the top into the diagonal -->
    <path d="M 33,85 L 47,85 L 47,81 L 43,81 L 43,48 C 43,36 49,32 58,32 C 63,32 67,35 70,41 L 88,81 L 88,85 L 80,85 L 80,81 L 85,81 L 69,45 C 67,41 64,38 60,38 C 55,38 51,42 51,48 L 51,81 L 47,81 L 47,85 L 33,85 Z" />
    
    <!-- H Left Stem (Middle vertical stem): intertwined with N's diagonal, beautiful top flare -->
    <path d="M 53,85 L 63,85 L 63,81 L 59,81 L 59,42 C 59,38 61,35 65,35 L 65,31 L 51,31 L 51,35 C 55,35 57,38 57,42 L 57,81 L 53,81 Z" />
    
    <!-- H Right Stem: flared top and bottom serifs -->
    <path d="M 73,85 L 83,85 L 83,81 L 79,81 L 79,42 C 79,38 81,35 85,35 L 85,31 L 71,31 L 71,35 C 75,35 77,38 77,42 L 77,81 L 73,81 Z" />
    
    <!-- H Crossbar: connects H's left (middle) and right vertical stems, passing behind or blending beautifully -->
    <path d="M 59,58 L 71,58 L 71,53 L 59,53 Z" />
  </g>

  </g>
  <!-- Text Part -->
  <text x="82" y="34" class="wordmark">NEXT HOME</text>
  <text x="82" y="52" class="arabic-submark">نيكست هوم</text>
</svg>